<?xml version="1.0" encoding="UTF-8"?>
<svg xmlns="http://www.w3.org/2000/svg" xmlns:xlink="http://www.w3.org/1999/xlink" viewBox="0 0 125.83 24.44">
  <defs>
    <style>
      .cls-1, .cls-2, .cls-3, .cls-4 {
        fill: none;
      }

      .cls-2 {
        opacity: .33;
      }

      .cls-3 {
        isolation: isolate;
      }

      .cls-5 {
        fill: #fff;
      }

      .cls-6 {
        fill: url(#New_Gradient_Swatch_2-2);
      }

      .cls-6, .cls-7 {
        mix-blend-mode: multiply;
      }

      .cls-7 {
        fill: url(#New_Gradient_Swatch_2);
      }

      .cls-4 {
        clip-path: url(#clippath);
      }
    </style>
    <clipPath id="clippath">
      <rect class="cls-1" x="-356.73" y="-1066.85" width="1025.3" height="615.18" transform="translate(-603.34 -915.17) rotate(90)"/>
    </clipPath>
    <linearGradient id="New_Gradient_Swatch_2" data-name="New Gradient Swatch 2" x1="5319.25" y1="7987.18" x2="5319.25" y2="7508.83" gradientTransform="translate(-7648.41 4756.19) rotate(-90)" gradientUnits="userSpaceOnUse">
      <stop offset="0" stop-color="#d1d2d4"/>
      <stop offset="1" stop-color="#fff"/>
    </linearGradient>
    <linearGradient id="New_Gradient_Swatch_2-2" data-name="New Gradient Swatch 2" x1="5103.31" y1="8097.11" x2="5103.31" y2="7618.76" xlink:href="#New_Gradient_Swatch_2"/>
  </defs>
  <g class="cls-3">
    <g id="Capa_1" data-name="Capa 1">
      <g class="cls-2">
        <g class="cls-4">
          <path class="cls-7" d="m-290.68-1216.58C-49.34-1030.36,26.76-854.7,52.81-731.65c45.81,216.34-41.95,369.87,54.3,572.06C168.1-31.46,269.95,46.79,339.47,90.45l-593.97-22.62-36.18-1284.41Z"/>
          <path class="cls-6" d="m-180.75-1000.63c241.34,186.22,317.44,361.88,343.49,484.93,45.81,216.34-41.95,369.87,54.3,572.06,60.99,128.13,162.83,206.38,232.36,250.04l-593.97-22.62-36.18-1284.41Z"/>
        </g>
      </g>
      <g>
        <g>
          <path class="cls-5" d="m78.65,4.55c-.62,0-.68.23-.72,1.07-.05,1.24-.05,1.51-.04,2.66.18.04.31.02.63.02.57,0,1.98-.09,1.98-1.76,0-.95-.39-2.01-1.84-2.01m-2.67,7.76c.51-.17.69-.26.79-.68.07-.35.11-3.36.11-4.03,0-1.7-.01-1.98-.05-2.28-.07-.59-.55-.6-.8-.62l.05-.34c.17,0,.87.01,1.01.01.15,0,.35-.03.75-.07.42-.04.82-.08.96-.08,1.96,0,2.71,1.21,2.71,2.19s-.9,1.76-1.85,2.1c1.34,2.8,2.04,4.12,3.67,4.16v.29c-1.16.02-2.83.02-4.78-4.29-.32-.01-.41-.01-.71-.06-.01.29-.03.53-.03,1.26,0,.43,0,1.74.16,2.02.15.25.63.37.8.39l-.05.32c-.38-.05-.6-.06-.79-.08-.2-.01-.38-.01-.72-.01-.49,0-.36,0-1.24.09v-.32Z"/>
          <path class="cls-5" d="m84.76,12.26c.32-.04.74-.08.86-.33.18-.35.18-2.04.18-2.59,0-.47,0-2.39-.14-2.68-.05-.1-.12-.27-.82-.27v-.28c.13,0,.49.01.82.02.34.02.66.03.7.03.23,0,1.05-.03,1.29-.04v.31c-.45,0-.6.03-.7.15-.23.27-.23,2.03-.23,2.55,0,.47,0,2.4.06,2.69.06.31.12.37.82.43l-.02.25-1.48-.02c-.7,0-1.06,0-1.35.02"/>
          <path class="cls-5" d="m94.67,12.31c-.87.26-1.72.28-1.82.28-1.8,0-3.15-1.38-3.15-3.29,0-2.21,1.62-3.27,3.35-3.27.38,0,.74.05,1.14.23.1.04.29.11.38.11s.17-.04.25-.08l.12.04c-.04.19-.23,1.16-.27,1.39l-.15-.04c-.05-.43-.06-.56-.19-.71-.14-.16-.68-.58-1.49-.58-2.06,0-2.06,2.34-2.06,2.86,0,2.79,1.84,3,2.2,3,.82,0,1.5-.47,1.76-1.35l.21.03c-.01.14-.01.22-.07.48-.02.07-.11.42-.12.48"/>
          <path class="cls-5" d="m98.59,10.68c0,.23,0,1.13.06,1.27.09.24.38.31.64.37v.24c-.24-.01-1.4-.05-1.52-.05-.24,0-.54.02-.8.05l-.09-.24c.6-.1.63-.24.66-.45.11-.8.15-2.75.15-3.68,0-1.67-.08-1.79-.65-1.79l.02-.27c.1-.02.22-.02.34-.02.09,0,.43,0,.78.01.35,0,.71.03.84.03h.42v.25c-.08.02-.45.09-.52.12-.1.04-.15.1-.19.48-.08.69-.1,1.08-.09,2.01.64,0,2.16.03,2.81.03.32,0,.42,0,.61-.04,0-.26.01-.55.01-.98,0-1.46-.05-1.54-.74-1.67l.05-.24c.13.01.27.03.45.04.2.02.43.02.73.02.61,0,.87-.04,1.09-.06v.24c-.22.03-.43.07-.51.35-.12.41-.13,3.44-.13,4.09,0,1.29.06,1.47.64,1.53l-.02.24c-.23-.03-.6-.05-1.16-.05-.36,0-.7.02-1.09.05v-.24c.37-.03.51-.15.57-.39.11-.42.11-1.5.11-2.41-.72-.04-3.29-.05-3.42-.05"/>
          <path class="cls-5" d="m110.88,6.9c-.32-.26-1-.26-1.37-.26-.35,0-.42,0-.59.03-.04.88-.07,2.62-.07,4.37,0,1.08.08,1.11.5,1.19.34.06.37.05.46.07l-.03.26c-.15,0-.81-.06-.91-.06-.9,0-1,0-1.94.16l-.08-.27c.15-.04.84-.23.91-.37.11-.18.12-2.24.12-2.58,0-.93,0-2.38-.09-2.78-.26-.02-.38-.03-.86-.03-1.18,0-1.25.18-1.4.6l-.23-.06c.23-.63.32-.97.37-1.17h.16c.07.06.25.11.37.12.37.05,1.75.05,2.24.05.68,0,2.03-.01,2.61-.04.13,0,.16-.02.21-.06l.14.09c-.08.23-.22.63-.26,1.07l-.28.05"/>
          <path class="cls-5" d="m117.21,10.33h-.21c-.11-.87-.11-.91-1.58-.91-.38,0-.5.02-.71.06,0,.14-.03,1.31-.03,1.34,0,.56.06.94.11,1.21.31.06.75.14,1.28.14,1.39,0,1.64-.78,1.76-1.15h.21c-.05.58-.13.87-.4,1.56-1.23-.08-1.56-.09-2.43-.09s-1.25.02-2.16.09l.03-.26c.33-.07.52-.12.58-.46.09-.57.11-2.33.11-3.01,0-.25-.05-1.51-.06-1.79-.03-.56-.12-.61-.47-.7-.03-.01-.09-.02-.1-.03v-.17h2.93c.65,0,.97,0,1.57-.05.03.7-.11,1.36-.23,1.36-.05,0-.13-.02-.19-.03.03-.12.06-.26.06-.4,0-.39-.39-.56-1.31-.56-.38,0-.77.05-1.17.11-.06.61-.09.99-.09,1.58,0,.23,0,.41,0,.89.21,0,.52.03.85.03.65,0,1.13-.07,1.2-.11.16-.07.24-.57.24-.58h.21"/>
          <path class="cls-5" d="m122.12,6.37c-.48,0-.48.13-.51.79-.04.97-.04,1.09-.03,1.98.14.03.18.04.42.04.45,0,1.4,0,1.4-1.3,0-.37-.17-1.5-1.29-1.5m-2.19,5.98c.4-.13.54-.2.61-.53.06-.27.08-2.61.08-3.13,0-1.32,0-1.54-.04-1.77-.05-.46-.42-.47-.62-.48l.04-.26c.13,0,.68,0,.79,0s.45-.02.76-.05c.32-.03.64-.06.75-.06,1.52,0,2.11.94,2.11,1.7s-.54,1.38-1.27,1.64c1.04,2.18,1.75,3.11,2.69,3.19v.26c-.9.02-2.2.02-3.72-3.33-.25,0-.33,0-.56-.04,0,.22-.02.41-.02.98,0,.34,0,1.36.12,1.57.12.19.49.28.62.31l-.04.24c-.3-.04-.46-.05-.61-.06-.16-.01-.3-.01-.56-.01-.38,0-.45,0-1.14.07v-.24Z"/>
          <path class="cls-5" d="m29.3,6.3c-.17-.39-.58-1.73-2.43-1.73-1.68,0-3.09,1.46-3.09,3.89s1.55,3.79,3.22,3.79c.7,0,1.25-.28,1.44-.69.09-.21.09-.68.09-.9,0-1.77-.03-1.77-1.31-1.77l.03-.38c.34-.01,1.75-.03,2.06-.04l.67-.04v.37c-.42.08-.45.21-.45,1.67,0,1.36.09,1.43.27,1.56v.18c-.64.14-2.17.41-2.92.41-3.32,0-4.31-2.49-4.31-4.18,0-2.92,2.42-4.22,4.48-4.22.7,0,1.12.14,1.61.27.19.05.22.01.47-.26h.2c.06,1.23.13,1.69.19,2.08"/>
          <path class="cls-5" d="m36.33,10.33h-.21c-.11-.87-.11-.91-1.58-.91-.38,0-.5.02-.71.06,0,.14-.03,1.31-.03,1.34,0,.56.06.94.11,1.21.31.06.75.14,1.28.14,1.39,0,1.64-.78,1.76-1.15h.2c-.05.58-.13.87-.4,1.56-1.24-.08-1.57-.09-2.43-.09s-1.25.02-2.16.09l.03-.26c.33-.07.52-.12.57-.46.09-.57.11-2.33.11-3.01,0-.25-.05-1.51-.06-1.79-.03-.56-.12-.61-.46-.7-.04-.01-.09-.02-.1-.03v-.17h2.93c.65,0,.97,0,1.58-.05.03.7-.11,1.36-.24,1.36-.04,0-.13-.02-.19-.03.03-.12.06-.26.06-.4,0-.39-.39-.56-1.31-.56-.38,0-.77.05-1.17.11-.07.61-.09.99-.09,1.58,0,.23,0,.41.01.89.21,0,.52.03.84.03.65,0,1.13-.07,1.21-.11.16-.07.24-.57.24-.58h.21"/>
          <path class="cls-5" d="m41.91,6.42c-.2,0-.56.02-.97.23-.06.64-.07,1.21-.07,2.42,0,.45,0,2.02.03,2.85.31.11.74.27,1.22.27,1.23,0,2.22-1.15,2.22-2.9,0-2.13-1.41-2.87-2.41-2.87m-1.99,3.54c0-.38-.02-1.97-.05-2.48-.06-.83-.07-.95-.6-.99v-.28l1.4-.03c.36,0,1.1-.1,1.44-.1,1.97,0,3.37,1.32,3.37,3.18,0,1.42-.89,3.27-3.47,3.27-.23,0-1.23-.05-1.43-.05-.17,0-.92,0-1.08,0h-.28v-.25c.6-.03.7-.07.7-1.61v-.67Z"/>
          <path class="cls-5" d="m51.57,10.33h-.22c-.11-.87-.11-.91-1.58-.91-.38,0-.5.02-.72.06,0,.14-.03,1.31-.03,1.34,0,.56.07.94.11,1.21.31.06.75.14,1.28.14,1.39,0,1.64-.78,1.76-1.15h.21c-.05.58-.13.87-.4,1.56-1.23-.08-1.57-.09-2.43-.09s-1.25.02-2.16.09l.03-.26c.33-.07.52-.12.57-.46.1-.57.11-2.33.11-3.01,0-.25-.06-1.51-.06-1.79-.03-.56-.12-.61-.46-.7-.04-.01-.1-.02-.1-.03v-.17h2.93c.65,0,.97,0,1.58-.05.03.7-.11,1.36-.23,1.36-.04,0-.13-.02-.19-.03.03-.12.06-.26.06-.4,0-.39-.39-.56-1.31-.56-.38,0-.77.05-1.17.11-.06.61-.09.99-.09,1.58,0,.23,0,.41,0,.89.21,0,.52.03.85.03.65,0,1.13-.07,1.2-.11.16-.07.24-.57.24-.58h.22"/>
          <path class="cls-5" d="m57.63,12.31c.59,0,1.84-.4,1.84-2.28,0-1.33-.58-3.58-2.25-3.58-.44,0-1.82.22-1.82,2.3,0,1.68.73,3.56,2.23,3.56m-.15-6.26c1.7,0,3.06,1.45,3.06,3.3,0,1.71-1.23,3.32-3.12,3.32s-3.12-1.59-3.12-3.37c0-1.99,1.56-3.25,3.17-3.25"/>
          <path class="cls-5" d="m68.04,10.76c0-.32.03-1.75.03-2.04,0-2.17-.07-2.27-.95-2.36l.08-.22c.05,0,.14-.02.23-.02.08,0,.28,0,.5.03.21.03.43.04.51.04.05,0,.64,0,.76,0v.26c-.13-.01-.39-.01-.5.22-.17.37-.18,2.1-.19,2.64,0,.35-.03,1.87-.03,2.17,0,.11.02.53.03.82l.02.39h-.28c-.31-.65-.81-1.18-1.3-1.69l-2.85-3.01c-.12-.13-.26-.28-.38-.39,0,.2-.03.67-.03.88l-.04,2.35c-.02.95-.01,1.31,1.02,1.49.03.12,0,.2,0,.28-.12,0-.23-.03-.37-.05-.13-.01-.28-.02-.51-.02-.21,0-1.11.07-1.29.07,0-.11,0-.15,0-.28.59,0,.65-.36.66-1.23l.05-2.98c.01-.84.01-1.54-.78-1.67-.01-.11-.01-.15,0-.31.05,0,.24.02.43.03.2,0,.4.02.48.02h.44c.57.72.61.75,2.17,2.41.44.46.86.92,1.3,1.38"/>
        </g>
        <g>
          <polyline class="cls-5" points="23.6 18.76 23.6 24.27 26.35 24.27 26.43 23.71 24.26 23.71 24.26 18.76"/>
          <path class="cls-5" d="m30.02,24.42c-.27-.09-.47-.31-.55-.59-.39.39-.7.54-1.16.54-.99,0-1.29-.6-1.29-1.14,0-.91.78-1.44,2.12-1.44.17,0,.28,0,.28,0v-.28c0-.35-.02-.5-.13-.63-.13-.14-.29-.22-.54-.22-.45,0-1.02.24-1.28.47l-.31-.45c.53-.35,1.1-.54,1.68-.54s.94.22,1.11.63c.09.22.1.52.09.88l-.03,1.32c-.02.65.02.82.32.98m-1.24-1.75c-1.01,0-1.37.34-1.37.96,0,.47.23.73.69.73.41,0,.79-.25.97-.63l.02-1.04c-.1,0-.2-.02-.31-.02"/>
          <path class="cls-5" d="m34.56,24.39c-.51,0-1.06-.15-1.47-.4l.24-.47c.41.25.83.38,1.27.38.49,0,.81-.27.81-.69,0-.36-.2-.56-.66-.66l-.5-.1c-.66-.14-1.01-.55-1.01-1.1,0-.72.59-1.23,1.42-1.23.42,0,.89.13,1.22.32l-.23.47c-.35-.17-.65-.29-1-.29-.46,0-.75.27-.75.66,0,.3.15.49.58.58l.53.11c.72.15,1.07.52,1.07,1.12,0,.78-.61,1.31-1.51,1.31"/>
          <path class="cls-5" d="m39.98,24.42c-.27-.09-.47-.31-.55-.59-.39.39-.7.54-1.16.54-.99,0-1.29-.6-1.29-1.14,0-.91.78-1.44,2.12-1.44.17,0,.28,0,.28,0v-.28c0-.35-.02-.5-.13-.63-.13-.14-.29-.22-.54-.22-.45,0-1.02.24-1.28.47l-.31-.45c.53-.35,1.1-.54,1.68-.54s.94.22,1.11.63c.09.22.1.52.09.88l-.03,1.32c-.02.65.02.82.32.98m-1.24-1.75c-1.01,0-1.37.34-1.37.96,0,.47.23.73.69.73.41,0,.79-.25.97-.63l.02-1.04c-.1,0-.2-.02-.31-.02"/>
          <path class="cls-5" d="m42.19,24.35c-.19,0-.35-.06-.47-.17-.13-.11-.19-.28-.19-.57v-4.24c0-.52-.1-.82-.1-.82l.63-.12s.1.34.1.95v4.09c0,.31.05.4.22.4.02,0,.08-.02.08-.02l.13.41c-.16.07-.23.09-.4.09"/>
          <path class="cls-5" d="m46.5,24.44c-.27-.22-.38-.38-.43-.64-.31.41-.72.61-1.27.61-.5,0-.88-.22-1.05-.57-.07-.15-.1-.36-.1-.59v-2.94l.62-.12v2.88c0,.38.06.55.24.68.13.09.31.14.49.14.39,0,.8-.29,1.02-.73v-2.84l.62-.1v2.92c0,.51.07.71.27.89"/>
          <path class="cls-5" d="m50.69,24.27s-.08-.2-.09-.41c-.29.33-.59.47-1.06.47-1.04,0-1.63-.75-1.63-2.03,0-.85.28-1.48.83-1.86.26-.18.48-.25.77-.25.45,0,.84.19,1.08.51,0,0,0-.33,0-.62v-1.68l.63.11v4.47c0,.69.03,1.06.12,1.29m-.75-3.14c-.2-.28-.5-.42-.97-.42-.31,0-.58.14-.75.42-.19.31-.26.6-.26,1.16,0,.47.03.81.16,1.04.19.33.43.47.8.47.33,0,.51-.07.77-.26.17-.12.24-.29.24-.29v-2.12Z"/>
          <path class="cls-5" d="m55.07,22.37v.09c0,.38.05.67.18.88.22.34.59.49,1,.49s.7-.12.98-.38l.24.4c-.35.32-.84.5-1.35.5-1.11,0-1.78-.8-1.78-2.13,0-.67.14-1.11.48-1.51.32-.38.71-.55,1.2-.55.43,0,.81.15,1.08.43.35.35.46.73.46,1.69v.09m-.85-1.37c-.14-.22-.42-.35-.72-.35-.57,0-.89.42-.92,1.25h1.83c0-.43-.06-.7-.18-.89"/>
          <path class="cls-5" d="m59.92,24.39c-.51,0-1.06-.15-1.47-.4l.24-.47c.41.25.83.38,1.27.38.49,0,.81-.27.81-.69,0-.36-.2-.56-.66-.66l-.5-.1c-.66-.14-1.01-.55-1.01-1.1,0-.72.59-1.23,1.42-1.23.42,0,.89.13,1.22.32l-.23.47c-.35-.17-.65-.29-1-.29-.46,0-.76.27-.76.66,0,.3.15.49.58.58l.53.11c.72.15,1.07.52,1.07,1.12,0,.78-.61,1.31-1.51,1.31"/>
          <path class="cls-5" d="m66.79,24.27v-2.71c0-.43-.03-.53-.14-.67-.09-.1-.26-.17-.44-.17-.32,0-.82.26-1.11.56v2.98h-.61v-3.08c0-.57-.15-.84-.15-.84l.61-.17s.14.3.14.63c.42-.42.84-.62,1.26-.62s.82.23.98.59c.06.14.1.31.1.47v3.04"/>
          <path class="cls-5" d="m71.77,24.44c-.27-.22-.38-.38-.43-.64-.31.41-.72.61-1.27.61-.51,0-.88-.22-1.05-.57-.07-.15-.1-.36-.1-.59v-2.94l.62-.12v2.88c0,.38.06.55.24.68.13.09.31.14.49.14.39,0,.8-.29,1.02-.73v-2.84l.62-.1v2.92c0,.51.07.71.27.89"/>
          <path class="cls-5" d="m73.9,22.37v.09c0,.38.05.67.19.88.22.34.59.49,1,.49s.7-.12.98-.38l.24.4c-.35.32-.84.5-1.35.5-1.11,0-1.78-.8-1.78-2.13,0-.67.14-1.11.48-1.51.32-.38.71-.55,1.2-.55.43,0,.81.15,1.08.43.35.35.46.73.46,1.69v.09m-.85-1.37c-.14-.22-.42-.35-.72-.35-.57,0-.89.42-.93,1.25h1.83c0-.43-.06-.7-.18-.89"/>
          <path class="cls-5" d="m78.75,24.39c-.51,0-1.06-.15-1.47-.4l.24-.47c.41.25.83.38,1.27.38.49,0,.81-.27.81-.69,0-.36-.2-.56-.66-.66l-.5-.1c-.66-.14-1.01-.55-1.01-1.1,0-.72.59-1.23,1.42-1.23.42,0,.88.13,1.22.32l-.23.47c-.35-.17-.65-.29-1-.29-.46,0-.76.27-.76.66,0,.3.15.49.58.58l.53.11c.72.15,1.07.52,1.07,1.12,0,.78-.61,1.31-1.51,1.31"/>
          <path class="cls-5" d="m82.92,20.74h-.84v2.58c0,.44.12.59.51.59.18,0,.28-.02.39-.08l.09.4c-.2.1-.43.16-.71.16-.21,0-.37-.04-.52-.11-.28-.14-.39-.39-.39-.8v-2.75h-.52v-.47h.52c0-.39.06-1.01.06-1.01l.66-.14s-.08.63-.08,1.16h1"/>
          <path class="cls-5" d="m85.74,20.87s-.11-.03-.18-.03c-.24,0-.48.1-.67.29-.18.19-.23.31-.23.63v2.51h-.63v-3.08c0-.59-.14-.85-.14-.85l.63-.17s.15.31.13.65c.29-.41.71-.67,1.12-.67.1,0,.22.04.22.04"/>
          <path class="cls-5" d="m89.35,24.42c-.27-.09-.47-.31-.55-.59-.39.39-.7.54-1.16.54-.99,0-1.29-.6-1.29-1.14,0-.91.78-1.44,2.12-1.44.17,0,.28,0,.28,0v-.28c0-.35-.02-.5-.13-.63-.13-.14-.29-.22-.54-.22-.45,0-1.02.24-1.28.47l-.31-.45c.53-.35,1.1-.54,1.68-.54s.94.22,1.11.63c.09.22.1.52.09.88l-.03,1.32c-.02.65.02.82.32.98m-1.24-1.75c-1.01,0-1.37.34-1.37.96,0,.47.23.73.69.73.41,0,.79-.25.97-.63l.02-1.04c-.11,0-.2-.02-.31-.02"/>
          <path class="cls-5" d="m97.09,24.27v-2.96c0-.39-.18-.59-.51-.59-.36,0-.64.23-1.06.62v2.92h-.64v-2.84c0-.24-.02-.4-.11-.51-.1-.11-.22-.16-.41-.16-.31,0-.6.15-1.02.53v2.99h-.6v-3.1c0-.58-.15-.85-.15-.85l.61-.14s.14.31.14.59c.27-.3.76-.6,1.16-.6s.79.24.93.67c.39-.41.88-.67,1.29-.67.59,0,1.01.45,1.01,1.08v3.02"/>
          <path class="cls-5" d="m99.59,19.52c-.27,0-.49-.21-.49-.48s.22-.5.49-.5.49.22.49.49-.22.49-.49.49m-.34,4.75v-3.98l.65-.11v4.09h-.65Z"/>
          <path class="cls-5" d="m102.58,24.39c-.51,0-1.06-.15-1.47-.4l.24-.47c.41.25.83.38,1.27.38.49,0,.81-.27.81-.69,0-.36-.2-.56-.66-.66l-.5-.1c-.66-.14-1.01-.55-1.01-1.1,0-.72.59-1.23,1.42-1.23.42,0,.88.13,1.22.32l-.23.47c-.35-.17-.65-.29-1-.29-.46,0-.75.27-.75.66,0,.3.15.49.58.58l.53.11c.72.15,1.07.52,1.07,1.12,0,.78-.61,1.31-1.51,1.31"/>
          <path class="cls-5" d="m105.63,19.52c-.27,0-.49-.21-.49-.48s.22-.5.49-.5.49.22.49.49-.22.49-.49.49m-.34,4.75v-3.98l.65-.11v4.09h-.65Z"/>
          <path class="cls-5" d="m108.96,24.37c-1.1,0-1.73-.81-1.73-2.13s.65-2.1,1.7-2.1c.67,0,1.1.3,1.37.7.25.36.37.84.37,1.49,0,1.33-.72,2.04-1.72,2.04m.82-3.2c-.17-.35-.52-.52-.85-.52-.35,0-.68.17-.82.43-.13.25-.19.57-.19,1.05,0,.56.1,1.06.25,1.31.14.24.47.4.81.4.42,0,.73-.22.87-.6.09-.25.12-.47.12-.87,0-.56-.06-.94-.19-1.2m-1.42-1.45l-.21-.38,1.66-1.04.34.62-1.8.8Z"/>
          <path class="cls-5" d="m114.19,24.27v-2.71c0-.43-.03-.53-.14-.67-.09-.1-.26-.17-.44-.17-.32,0-.82.26-1.11.56v2.98h-.61v-3.08c0-.57-.15-.84-.15-.84l.61-.17s.14.3.14.63c.42-.42.84-.62,1.26-.62s.82.23.98.59c.06.14.1.31.1.47v3.04"/>
        </g>
        <g>
          <g>
            <path class="cls-5" d="m12.53,10.5c0,1.37-1.11,2.48-2.48,2.48s-2.49-1.11-2.49-2.49c0-.55.18-1.05.48-1.46l-1.01-1.39h-1.03v1.71h-1.09v-4.97h2.72c.9,0,1.63.73,1.63,1.63,0,.66-.4,1.23-.97,1.48l.58.8c.35-.19.74-.29,1.17-.29.77,0,1.45.35,1.9.88l-.81.69c-.26-.31-.65-.51-1.09-.51-.78,0-1.42.64-1.42,1.42s.64,1.42,1.42,1.42c.56,0,1.04-.32,1.27-.79h-1.15v-.95h2.37M8.32,1.83c-3.66,0-6.62,2.97-6.62,6.63s2.96,6.63,6.62,6.63,6.63-2.97,6.63-6.63S11.98,1.83,8.32,1.83"/>
            <path class="cls-5" d="m7.5,5.34h-1.5s0,1.36,0,1.36h1.5c.38,0,.68-.31.68-.68s-.3-.68-.68-.68"/>
          </g>
          <path class="cls-5" d="m8.38,16.76C3.76,16.76,0,13,0,8.38S3.76,0,8.38,0s8.38,3.76,8.38,8.38-3.76,8.38-8.38,8.38Zm0-15.94C4.21.82.82,4.21.82,8.38s3.39,7.56,7.56,7.56,7.56-3.39,7.56-7.56S12.55.82,8.38.82Z"/>
        </g>
      </g>
    </g>
  </g>
</svg>