<?xml version="1.0" encoding="UTF-8"?>
<svg xmlns="http://www.w3.org/2000/svg" xmlns:xlink="http://www.w3.org/1999/xlink" viewBox="0 0 908.18 176.37">
  <defs>
    <style>
      .cls-1, .cls-2, .cls-3, .cls-4, .cls-5 {
        fill: none;
      }

      .cls-2 {
        opacity: .33;
      }

      .cls-3 {
        clip-path: url(#clippath-1);
      }

      .cls-4 {
        isolation: isolate;
      }

      .cls-6 {
        fill: #e7e8e9;
      }

      .cls-7 {
        fill: #10447f;
      }

      .cls-8 {
        fill: url(#New_Gradient_Swatch_2-2);
      }

      .cls-8, .cls-9 {
        mix-blend-mode: multiply;
      }

      .cls-9 {
        fill: url(#New_Gradient_Swatch_2);
      }

      .cls-5 {
        clip-path: url(#clippath);
      }
    </style>
    <clipPath id="clippath">
      <rect class="cls-1" x="2.57" y="-1200.43" width="1025.3" height="615.18" transform="translate(-377.62 -1408.06) rotate(90)"/>
    </clipPath>
    <linearGradient id="New_Gradient_Swatch_2" data-name="New Gradient Swatch 2" x1="5462.61" y1="7963.53" x2="5462.61" y2="7485.18" gradientTransform="translate(-7155.53 4981.91) rotate(-90)" gradientUnits="userSpaceOnUse">
      <stop offset="0" stop-color="#d1d2d4"/>
      <stop offset="1" stop-color="#fff"/>
    </linearGradient>
    <clipPath id="clippath-1">
      <rect class="cls-1" x="-775.64" y="-1200.43" width="1025.3" height="615.18" transform="translate(-1155.83 -629.84) rotate(90)"/>
    </clipPath>
    <linearGradient id="New_Gradient_Swatch_2-2" data-name="New Gradient Swatch 2" y1="7185.32" y2="6706.96" xlink:href="#New_Gradient_Swatch_2"/>
  </defs>
  <g class="cls-4">
    <g id="Capa_1" data-name="Capa 1">
      <g class="cls-2">
        <g class="cls-5">
          <g>
            <path class="cls-6" d="m715.09-.14c-.78.55-1.25,1.11-1.76,1.15-.36.03-.77-.66-1.16-1.03.42-.44.77-1.07,1.28-1.24.29-.1.84.54,1.64,1.11Z"/>
            <path class="cls-6" d="m783.84.96c.83-.45,1.36-.96,1.88-.94.35.01,1.04.94.95,1.13-.25.5-.82,1.01-1.34,1.12-.3.06-.76-.65-1.48-1.31Z"/>
            <path class="cls-6" d="m737.4-1.62c.64.91,1.3,1.43,1.25,1.89-.05.48-.77,1.24-1.21,1.24-.44,0-1.18-.73-1.24-1.21-.06-.45.59-1,1.2-1.93Z"/>
            <path class="cls-6" d="m759.56.63c.94-.58,1.51-1.21,1.97-1.13.48.08.84.83,1.26,1.29-.46.41-.9,1.12-1.38,1.16-.46.03-.96-.65-1.84-1.32Z"/>
            <path class="cls-6" d="m809.69.09c.44.69.99,1.18.92,1.57-.07.4-.76.98-1.13.95-.37-.03-.95-.72-.95-1.13,0-.39.62-.78,1.16-1.39Z"/>
            <path class="cls-6" d="m749.15,11.26c.45.52.97.86.97,1.19,0,.35-.51.69-.79,1.04-.35-.29-.91-.53-.97-.87-.06-.32.41-.74.8-1.36Z"/>
            <path class="cls-6" d="m689.48-1.82c.36.63.81,1.07.74,1.39-.07.33-.69.8-1,.76-.31-.04-.77-.65-.76-1,.01-.33.55-.65,1.02-1.15Z"/>
            <path class="cls-6" d="m773.15,14.24c-.36-.63-.81-1.07-.74-1.39.07-.33.69-.8,1-.76.32.04.78.65.76,1-.01.33-.55.65-1.02,1.15Z"/>
            <path class="cls-6" d="m701.64,11.83c-.24.1-.46.23-.68.26-.06,0-.26-.39-.22-.43.16-.17.39-.27.6-.39.08.16.17.31.3.57Z"/>
            <path class="cls-6" d="m796.59,13.39c.28-.25.59-.6.65-.56.27.18.46.46.68.7-.22.15-.44.41-.65.41-.2,0-.39-.3-.68-.55Z"/>
            <path class="cls-6" d="m820.91,14.01c.11-.26.19-.42.26-.58.22.1.44.18.64.31.03.02-.12.43-.2.44-.22,0-.45-.1-.69-.17Z"/>
            <path class="cls-6" d="m724.45,12.12c.28-.25.59-.6.65-.56.27.18.46.46.68.7-.22.15-.44.41-.65.41-.2,0-.39-.3-.68-.55Z"/>
            <path class="cls-6" d="m833.45,1.27c.31.22.53.38.75.53-.21.26-.41.52-.62.78-.19-.18-.5-.34-.52-.54-.03-.21.22-.45.39-.77Z"/>
          </g>
          <path class="cls-9" d="m178.55-1134.22c241.34,186.22,317.44,361.88,343.49,484.93,45.81,216.34-41.95,369.87,54.3,572.06,60.99,128.13,162.83,206.38,232.36,250.04l-593.97-22.62-36.18-1284.41Z"/>
        </g>
      </g>
      <g class="cls-2">
        <g class="cls-3">
          <g>
            <path class="cls-6" d="m5.62.96C6.46.51,6.99,0,7.5.02c.35.01,1.04.94.95,1.13-.25.5-.82,1.01-1.34,1.12-.3.06-.76-.65-1.48-1.31Z"/>
            <path class="cls-6" d="m31.47.09c.44.69.99,1.18.92,1.57-.07.4-.76.98-1.13.95-.37-.03-.95-.72-.95-1.13,0-.39.62-.78,1.16-1.39Z"/>
            <path class="cls-6" d="m18.37,13.39c.28-.25.59-.6.65-.56.27.18.46.46.68.7-.22.15-.44.41-.65.41-.2,0-.39-.3-.68-.55Z"/>
            <path class="cls-6" d="m42.69,14.01c.11-.26.19-.42.26-.58.22.1.44.18.64.31.03.02-.12.43-.2.44-.22,0-.45-.1-.69-.17Z"/>
            <path class="cls-6" d="m55.24,1.27c.31.22.53.38.75.53-.21.26-.41.52-.62.78-.19-.18-.5-.34-.52-.54-.03-.21.22-.45.39-.77Z"/>
          </g>
          <path class="cls-8" d="m-599.66-1134.22c241.34,186.22,317.44,361.88,343.49,484.93,45.81,216.34-41.95,369.87,54.3,572.06C-140.88,50.9-39.04,129.15,30.49,172.81l-593.97-22.62-36.18-1284.41Z"/>
        </g>
      </g>
      <g>
        <g>
          <path class="cls-7" d="m567.7,32.86c-4.47,0-4.92,1.67-5.19,7.73-.34,8.97-.34,10.93-.26,19.17,1.3.26,2.25.18,4.56.18,4.14,0,14.31-.62,14.31-12.74,0-6.84-2.84-14.5-13.26-14.5m-19.28,56.03c3.7-1.23,4.99-1.9,5.67-4.91.52-2.56.78-24.24.78-29.06,0-12.29-.08-14.27-.34-16.44-.52-4.26-3.96-4.36-5.79-4.46l.35-2.45c1.21,0,6.29.09,7.33.09,1.12,0,2.49-.2,5.43-.48,3-.29,5.94-.56,6.96-.56,14.11,0,19.53,8.71,19.53,15.81s-6.52,12.7-13.32,15.15c9.64,20.24,14.71,29.71,26.49,30.06v2.09c-8.34.18-20.4.18-34.52-30.94-2.32-.11-3-.11-5.14-.4-.11,2.1-.19,3.8-.19,9.1,0,3.13,0,12.56,1.13,14.55,1.12,1.81,4.56,2.66,5.76,2.85l-.34,2.28c-2.76-.38-4.31-.47-5.68-.57-1.47-.09-2.75-.09-5.17-.09-3.53,0-2.57,0-8.94.67v-2.28Z"/>
          <path class="cls-7" d="m611.77,88.52c2.3-.32,5.31-.6,6.24-2.37,1.27-2.5,1.27-14.69,1.27-18.67,0-3.4,0-17.23-1.01-19.36-.33-.74-.85-1.98-5.95-1.98l.06-1.99c.88,0,3.49.08,5.9.15,2.47.14,4.76.21,5.08.21,1.69,0,7.57-.21,9.32-.28v2.26c-3.27,0-4.36.23-5.08,1.1-1.63,1.98-1.63,14.65-1.63,18.4,0,3.4,0,17.3.42,19.42.46,2.23.86,2.65,5.88,3.11l-.13,1.83-10.65-.15c-5.02-.06-7.63,0-9.72.15"/>
          <path class="cls-7" d="m683.29,88.88c-6.27,1.89-12.38,2.05-13.13,2.05-12.98,0-22.76-9.93-22.76-23.75,0-15.98,11.72-23.63,24.18-23.63,2.75,0,5.31.38,8.24,1.63.73.28,2.08.79,2.75.79s1.2-.28,1.8-.57l.87.29c-.27,1.4-1.68,8.4-1.95,10l-1.06-.28c-.33-3.1-.41-4.05-1.34-5.09-1-1.18-4.88-4.2-10.72-4.2-14.85,0-14.85,16.86-14.85,20.68,0,20.16,13.25,21.64,15.87,21.64,5.9,0,10.86-3.39,12.73-9.71l1.54.21c-.07,1.03-.07,1.61-.53,3.47-.14.5-.82,3.01-.87,3.45"/>
          <path class="cls-7" d="m711.58,77.11c0,1.68,0,8.16.41,9.19.68,1.7,2.74,2.22,4.61,2.65v1.7c-1.74-.08-10.1-.39-10.99-.39-1.73,0-3.87.18-5.8.39l-.62-1.7c4.37-.75,4.56-1.76,4.76-3.25.81-5.79,1.08-19.84,1.08-26.54,0-12.08-.6-12.95-4.7-12.95l.14-1.92c.75-.15,1.55-.15,2.42-.15.67,0,3.14,0,5.62.08,2.55.07,5.1.21,6.03.21h3.02v1.78c-.61.14-3.23.66-3.77.87-.72.29-1.05.75-1.39,3.47-.6,5-.74,7.79-.68,14.48,4.63.07,15.61.22,20.3.22,2.32,0,3-.07,4.41-.3,0-1.91.08-3.95.08-7.06,0-10.52-.33-11.12-5.37-12.04l.34-1.71c.93.08,1.94.21,3.27.29,1.42.14,3.07.14,5.3.14,4.42,0,6.29-.28,7.84-.43v1.71c-1.61.2-3.09.5-3.68,2.54-.88,2.97-.94,24.8-.94,29.52,0,9.34.46,10.6,4.62,11.04l-.16,1.7c-1.65-.21-4.32-.39-8.4-.39-2.62,0-5.03.18-7.84.39v-1.7c2.67-.22,3.67-1.1,4.14-2.8.81-3.01.81-10.81.81-17.43-5.16-.29-23.75-.36-24.71-.36"/>
          <path class="cls-7" d="m800.29,49.82c-2.28-1.91-7.22-1.91-9.91-1.91-2.54,0-3.01,0-4.23.22-.26,6.38-.52,18.89-.52,31.56,0,7.78.59,8.01,3.6,8.6,2.43.45,2.7.39,3.3.52l-.2,1.85c-1.08,0-5.84-.46-6.56-.46-6.52,0-7.25,0-13.99,1.18l-.61-1.92c1.06-.28,6.03-1.69,6.56-2.65.8-1.31.87-16.17.87-18.59,0-6.71,0-17.16-.67-20.09-1.89-.15-2.74-.22-6.22-.22-8.51,0-9.05,1.33-10.11,4.34l-1.69-.46c1.69-4.56,2.29-6.98,2.69-8.44h1.14c.53.42,1.79.8,2.67.88,2.67.36,12.65.36,16.14.36,4.88,0,14.66-.08,18.81-.29.94-.07,1.15-.15,1.55-.45l1.01.66c-.55,1.63-1.62,4.57-1.9,7.74l-1.99.34"/>
          <path class="cls-7" d="m845.99,74.53h-1.55c-.81-6.31-.81-6.6-11.39-6.6-2.74,0-3.61.14-5.16.42,0,1.04-.19,9.49-.19,9.7,0,4.07.47,6.78.79,8.76,2.24.45,5.44,1.04,9.25,1.04,10.04,0,11.84-5.66,12.72-8.31h1.49c-.35,4.2-.95,6.31-2.92,11.23-8.88-.57-11.29-.63-17.51-.63s-9.05.13-15.61.63l.2-1.9c2.42-.5,3.75-.87,4.15-3.32.67-4.09.79-16.83.79-21.7,0-1.83-.38-10.88-.45-12.94-.21-4.06-.88-4.43-3.38-5.08-.23-.08-.66-.15-.72-.23v-1.25h21.17c4.68,0,7.02,0,11.35-.36.22,5.08-.79,9.79-1.65,9.79-.34,0-.93-.15-1.4-.22.19-.89.4-1.91.4-2.88,0-2.78-2.81-4.02-9.45-4.02-2.74,0-5.55.36-8.44.8-.46,4.41-.67,7.14-.67,11.4,0,1.63,0,2.96.07,6.42,1.55.07,3.74.21,6.11.21,4.67,0,8.17-.52,8.69-.81,1.15-.5,1.75-4.12,1.75-4.19h1.55"/>
          <path class="cls-7" d="m881.41,45.97c-3.48,0-3.48.96-3.68,5.68-.28,6.99-.28,7.87-.2,14.26,1.01.22,1.28.29,3.06.29,3.24,0,10.12,0,10.12-9.41,0-2.64-1.21-10.82-9.3-10.82m-15.8,43.13c2.87-.96,3.87-1.47,4.41-3.83.4-1.97.6-18.85.6-22.59,0-9.56-.07-11.11-.27-12.79-.39-3.32-3.06-3.4-4.47-3.47l.26-1.91c.94,0,4.88.07,5.7.07s3.21-.14,5.49-.35c2.35-.23,4.62-.46,5.42-.46,10.98,0,15.2,6.79,15.2,12.29s-3.89,9.93-9.18,11.87c7.51,15.73,12.65,22.42,19.42,23.01v1.9c-6.49.16-15.87.16-26.84-24.04-1.81-.07-2.36-.07-4.01-.29-.07,1.62-.14,2.96-.14,7.06,0,2.43,0,9.78.87,11.34.88,1.37,3.54,2.05,4.49,2.2l-.28,1.76c-2.15-.29-3.33-.38-4.4-.43-1.15-.08-2.16-.08-4.02-.08-2.73,0-3.28,0-8.23.52v-1.76Z"/>
          <path class="cls-7" d="m211.46,45.5c-1.22-2.84-4.18-12.49-17.56-12.49-12.13,0-22.29,10.54-22.29,28.05s11.22,27.35,23.27,27.35c5.05,0,9-2.05,10.38-4.97.67-1.5.67-4.93.67-6.51,0-12.81-.25-12.81-9.46-12.81l.25-2.71c2.42-.11,12.64-.2,14.87-.3l4.85-.28v2.65c-3,.58-3.24,1.51-3.24,12.02,0,9.84.67,10.3,1.96,11.26v1.33c-4.64,1.02-15.68,2.93-21.09,2.93-23.94,0-31.07-17.97-31.07-30.19,0-21.07,17.47-30.43,32.36-30.43,5.02,0,8.1,1.02,11.62,1.97,1.38.37,1.58.08,3.38-1.9h1.45c.44,8.9.95,12.2,1.39,15.03"/>
          <path class="cls-7" d="m262.24,74.53h-1.53c-.82-6.31-.82-6.6-11.39-6.6-2.75,0-3.62.14-5.14.42,0,1.04-.22,9.49-.22,9.7,0,4.07.45,6.78.81,8.76,2.21.45,5.42,1.04,9.23,1.04,10.05,0,11.85-5.66,12.72-8.31h1.48c-.34,4.2-.93,6.31-2.87,11.23-8.91-.57-11.33-.63-17.54-.63s-9.04.13-15.62.63l.21-1.9c2.41-.5,3.74-.87,4.13-3.32.67-4.09.81-16.83.81-21.7,0-1.83-.39-10.88-.46-12.94-.21-4.06-.88-4.43-3.35-5.08-.29-.08-.68-.15-.73-.23v-1.25h21.15c4.7,0,7.03,0,11.39-.36.2,5.08-.82,9.79-1.7,9.79-.31,0-.94-.15-1.4-.22.21-.89.43-1.9.43-2.88,0-2.78-2.84-4.02-9.46-4.02-2.75,0-5.57.36-8.43.8-.49,4.41-.66,7.14-.66,11.4,0,1.63,0,2.96.07,6.42,1.52.07,3.73.21,6.06.21,4.69,0,8.17-.52,8.71-.81,1.15-.5,1.76-4.12,1.76-4.19h1.53"/>
          <path class="cls-7" d="m302.5,46.35c-1.46,0-4.05.14-7.01,1.69-.41,4.63-.53,8.76-.53,17.44,0,3.26.06,14.58.2,20.55,2.2.77,5.36,1.98,8.77,1.98,8.89,0,15.99-8.33,15.99-20.91,0-15.37-10.17-20.75-17.42-20.75m-14.39,25.53c0-2.71-.12-14.2-.39-17.88-.41-5.96-.48-6.84-4.36-7.13v-1.99l10.13-.21c2.58-.07,7.95-.73,10.36-.73,14.19,0,24.35,9.56,24.35,22.96,0,10.27-6.42,23.6-25.08,23.6-1.69,0-8.86-.36-10.32-.36-1.21,0-6.63.06-7.78.06h-2v-1.82c4.36-.22,5.08-.53,5.08-11.65v-4.84Z"/>
          <path class="cls-7" d="m372.24,74.53h-1.55c-.79-6.31-.79-6.6-11.37-6.6-2.74,0-3.63.14-5.16.42,0,1.04-.2,9.49-.2,9.7,0,4.07.49,6.78.8,8.76,2.22.45,5.42,1.04,9.24,1.04,10.06,0,11.85-5.66,12.72-8.31h1.5c-.33,4.2-.95,6.31-2.87,11.23-8.89-.57-11.34-.63-17.56-.63s-9.04.13-15.6.63l.21-1.9c2.4-.5,3.74-.87,4.13-3.32.7-4.09.81-16.83.81-21.7,0-1.83-.4-10.88-.45-12.94-.19-4.06-.87-4.43-3.35-5.08-.28-.08-.7-.15-.75-.23v-1.25h21.16c4.7,0,7.02,0,11.4-.36.18,5.08-.82,9.79-1.69,9.79-.32,0-.93-.15-1.4-.22.2-.89.4-1.9.4-2.88,0-2.78-2.83-4.02-9.45-4.02-2.73,0-5.56.36-8.44.8-.45,4.41-.65,7.14-.65,11.4,0,1.63,0,2.96.06,6.42,1.53.07,3.76.21,6.11.21,4.68,0,8.16-.52,8.69-.81,1.15-.5,1.73-4.12,1.73-4.19h1.55"/>
          <path class="cls-7" d="m415.94,88.88c4.28,0,13.25-2.86,13.25-16.48,0-9.57-4.21-25.84-16.21-25.84-3.2,0-13.16,1.62-13.16,16.63,0,12.14,5.27,25.68,16.12,25.68m-1.07-45.17c12.24,0,22.11,10.46,22.11,23.83,0,12.37-8.86,23.99-22.52,23.99s-22.5-11.48-22.5-24.33c0-14.38,11.23-23.49,22.91-23.49"/>
          <path class="cls-7" d="m491.08,77.63c0-2.29.21-12.67.21-14.72,0-15.68-.53-16.42-6.83-17.06l.6-1.62c.39-.07,1.01-.14,1.66-.14.57,0,2.02.07,3.58.21,1.5.21,3.13.28,3.66.28.34,0,4.63-.07,5.51-.07v1.85c-.94-.08-2.82-.08-3.62,1.61-1.25,2.65-1.33,15.18-1.39,19.06,0,2.51-.23,13.48-.23,15.68,0,.81.14,3.81.23,5.9l.14,2.78h-2.04c-2.26-4.71-5.84-8.54-9.35-12.22l-20.58-21.71c-.87-.95-1.87-2.04-2.75-2.78-.05,1.47-.19,4.84-.19,6.33l-.26,16.98c-.15,6.84-.1,9.48,7.34,10.73.21.89.06,1.47,0,2.01-.86-.07-1.65-.23-2.67-.38-.93-.08-2.06-.16-3.66-.16-1.49,0-7.98.47-9.31.54-.07-.82-.07-1.06,0-2.01,4.22-.05,4.69-2.63,4.75-8.9l.33-21.54c.07-6.1.07-11.11-5.62-12.06-.09-.82-.09-1.11,0-2.23.33,0,1.73.16,3.13.23,1.42.07,2.88.13,3.43.13h3.15c4.12,5.22,4.41,5.39,15.65,17.37,3.16,3.31,6.22,6.64,9.37,9.93"/>
        </g>
        <g>
          <polyline class="cls-7" points="170.32 135.38 170.32 175.14 190.16 175.14 190.79 171.14 175.08 171.14 175.08 135.38"/>
          <path class="cls-7" d="m216.71,176.25c-1.98-.65-3.42-2.21-3.94-4.24-2.79,2.78-5.04,3.89-8.36,3.89-7.13,0-9.28-4.34-9.28-8.23,0-6.55,5.63-10.38,15.31-10.38,1.22,0,2.03.06,2.03.06v-2.03c0-2.55-.12-3.59-.93-4.52-.93-1.04-2.09-1.56-3.89-1.56-3.25,0-7.36,1.74-9.22,3.4l-2.26-3.24c3.83-2.54,7.94-3.87,12.12-3.87s6.79,1.56,8,4.52c.63,1.56.69,3.77.63,6.38l-.22,9.51c-.12,4.7.17,5.92,2.31,7.07m-8.93-12.63c-7.31,0-9.91,2.49-9.91,6.9,0,3.42,1.67,5.27,4.98,5.27,2.96,0,5.68-1.8,7.02-4.53l.17-7.53c-.75-.07-1.45-.12-2.26-.12"/>
          <path class="cls-7" d="m249.45,176.01c-3.66,0-7.66-1.1-10.61-2.9l1.74-3.36c2.95,1.8,5.96,2.72,9.15,2.72,3.54,0,5.86-1.91,5.86-4.99,0-2.61-1.44-4.06-4.76-4.75l-3.6-.75c-4.75-.99-7.3-3.95-7.3-7.95,0-5.21,4.23-8.86,10.26-8.86,3.03,0,6.39.93,8.82,2.32l-1.68,3.36c-2.55-1.22-4.7-2.09-7.25-2.09-3.31,0-5.45,1.93-5.45,4.76,0,2.2,1.11,3.55,4.17,4.18l3.83.81c5.22,1.09,7.71,3.77,7.71,8.05,0,5.62-4.4,9.45-10.89,9.45"/>
          <path class="cls-7" d="m288.58,176.25c-1.97-.65-3.42-2.21-3.94-4.24-2.79,2.78-5.05,3.89-8.35,3.89-7.14,0-9.28-4.34-9.28-8.23,0-6.55,5.62-10.38,15.31-10.38,1.22,0,2.03.06,2.03.06v-2.03c0-2.55-.11-3.59-.92-4.52-.93-1.04-2.09-1.56-3.89-1.56-3.24,0-7.36,1.74-9.21,3.4l-2.26-3.24c3.82-2.54,7.94-3.87,12.12-3.87s6.78,1.56,8,4.52c.63,1.56.7,3.77.63,6.38l-.22,9.51c-.12,4.7.17,5.92,2.32,7.07m-8.92-12.63c-7.31,0-9.92,2.49-9.92,6.9,0,3.42,1.67,5.27,4.98,5.27,2.96,0,5.68-1.8,7.02-4.53l.18-7.53c-.76-.07-1.45-.12-2.26-.12"/>
          <path class="cls-7" d="m304.51,175.72c-1.39,0-2.55-.4-3.42-1.22-.93-.8-1.39-2.02-1.39-4.11v-30.61c0-3.77-.7-5.91-.7-5.91l4.52-.88s.76,2.44.76,6.85v29.51c0,2.27.34,2.91,1.62,2.91.18,0,.58-.13.58-.13l.93,2.96c-1.16.53-1.68.63-2.9.63"/>
          <path class="cls-7" d="m335.64,176.37c-1.92-1.57-2.73-2.72-3.14-4.65-2.2,2.97-5.21,4.41-9.17,4.41-3.64,0-6.37-1.56-7.58-4.12-.52-1.09-.75-2.61-.75-4.29v-21.22l4.46-.88v20.76c0,2.72.4,3.95,1.74,4.87.93.65,2.26,1,3.53,1,2.84,0,5.81-2.09,7.36-5.24v-20.47l4.47-.74v21.04c0,3.65.53,5.11,1.98,6.43"/>
          <path class="cls-7" d="m365.89,175.14s-.57-1.44-.64-2.96c-2.08,2.38-4.28,3.37-7.66,3.37-7.48,0-11.77-5.4-11.77-14.62,0-6.14,2.04-10.67,5.98-13.4,1.86-1.27,3.48-1.8,5.57-1.8,3.24,0,6.08,1.34,7.82,3.65,0,0-.05-2.37-.05-4.46v-12.12l4.52.76v32.23c0,4.98.23,7.64.86,9.33m-5.44-22.67c-1.44-2.02-3.59-3.02-7.02-3.02-2.26,0-4.17,1.04-5.38,3.02-1.4,2.21-1.85,4.3-1.85,8.36,0,3.36.22,5.85,1.15,7.53,1.34,2.37,3.13,3.36,5.81,3.36,2.38,0,3.71-.52,5.57-1.84,1.22-.87,1.73-2.09,1.73-2.09v-15.31Z"/>
          <path class="cls-7" d="m397.48,161.47v.68c0,2.74.35,4.81,1.34,6.33,1.62,2.49,4.28,3.53,7.19,3.53s5.04-.87,7.07-2.72l1.74,2.9c-2.55,2.31-6.03,3.59-9.74,3.59-8,0-12.81-5.79-12.81-15.37,0-4.86,1.04-8,3.48-10.9,2.32-2.72,5.16-4,8.64-4,3.13,0,5.86,1.1,7.82,3.14,2.5,2.56,3.31,5.28,3.31,12.18v.65m-6.14-9.86c-.99-1.57-3.01-2.56-5.22-2.56-4.13,0-6.44,3.03-6.67,8.99h13.22c-.06-3.14-.46-5.05-1.34-6.43"/>
          <path class="cls-7" d="m432.5,176.01c-3.66,0-7.65-1.1-10.61-2.9l1.74-3.36c2.95,1.8,5.96,2.72,9.15,2.72,3.54,0,5.86-1.91,5.86-4.99,0-2.61-1.45-4.06-4.76-4.75l-3.6-.75c-4.75-.99-7.31-3.95-7.31-7.95,0-5.21,4.23-8.86,10.26-8.86,3.03,0,6.39.93,8.82,2.32l-1.68,3.36c-2.55-1.22-4.7-2.09-7.24-2.09-3.31,0-5.45,1.93-5.45,4.76,0,2.2,1.1,3.55,4.17,4.18l3.83.81c5.22,1.09,7.71,3.77,7.71,8.05,0,5.62-4.4,9.45-10.89,9.45"/>
          <path class="cls-7" d="m482.06,175.14v-19.54c0-3.08-.24-3.83-1.04-4.81-.65-.75-1.86-1.21-3.19-1.21-2.32,0-5.92,1.86-8.01,4.05v21.51h-4.4v-22.26c0-4.12-1.1-6.09-1.1-6.09l4.4-1.21s1.04,2.15,1.04,4.52c3.02-3.02,6.04-4.47,9.11-4.47s5.91,1.69,7.07,4.24c.46,1.05.7,2.21.7,3.37v21.91"/>
          <path class="cls-7" d="m517.99,176.37c-1.91-1.57-2.73-2.72-3.14-4.65-2.2,2.97-5.22,4.41-9.17,4.41-3.65,0-6.37-1.56-7.58-4.12-.52-1.09-.76-2.61-.76-4.29v-21.22l4.46-.88v20.76c0,2.72.41,3.95,1.75,4.87.93.65,2.26,1,3.53,1,2.84,0,5.8-2.09,7.36-5.24v-20.47l4.47-.74v21.04c0,3.65.52,5.11,1.97,6.43"/>
          <path class="cls-7" d="m533.4,161.47v.68c0,2.74.36,4.81,1.34,6.33,1.62,2.49,4.28,3.53,7.19,3.53s5.05-.87,7.07-2.72l1.75,2.9c-2.56,2.31-6.04,3.59-9.74,3.59-8.01,0-12.82-5.79-12.82-15.37,0-4.86,1.05-8,3.48-10.9,2.32-2.72,5.16-4,8.64-4,3.13,0,5.86,1.1,7.83,3.14,2.5,2.56,3.31,5.28,3.31,12.18v.65m-6.14-9.86c-.99-1.57-3.01-2.56-5.22-2.56-4.12,0-6.44,3.03-6.68,8.99h13.22c-.06-3.14-.46-5.05-1.32-6.43"/>
          <path class="cls-7" d="m568.42,176.01c-3.65,0-7.65-1.1-10.61-2.9l1.75-3.36c2.95,1.8,5.97,2.72,9.15,2.72,3.54,0,5.86-1.91,5.86-4.99,0-2.61-1.45-4.06-4.76-4.75l-3.59-.75c-4.76-.99-7.3-3.95-7.3-7.95,0-5.21,4.23-8.86,10.25-8.86,3.02,0,6.38.93,8.81,2.32l-1.67,3.36c-2.55-1.22-4.7-2.09-7.25-2.09-3.31,0-5.45,1.93-5.45,4.76,0,2.2,1.1,3.55,4.16,4.18l3.83.81c5.22,1.09,7.71,3.77,7.71,8.05,0,5.62-4.4,9.45-10.9,9.45"/>
          <path class="cls-7" d="m598.5,149.69h-6.03v18.61c0,3.19.86,4.29,3.71,4.29,1.28,0,2.03-.16,2.84-.58l.64,2.9c-1.44.75-3.08,1.16-5.1,1.16-1.5,0-2.67-.29-3.76-.81-2.03-.99-2.79-2.84-2.79-5.74v-19.83h-3.76v-3.42h3.76c0-2.78.47-7.3.47-7.3l4.75-1.04s-.58,4.52-.58,8.35h7.25"/>
          <path class="cls-7" d="m618.85,150.62c-.28-.11-.81-.23-1.28-.23-1.73,0-3.48.75-4.82,2.09-1.33,1.34-1.68,2.21-1.68,4.58v18.09h-4.51v-22.26c0-4.24-.99-6.14-.99-6.14l4.52-1.23s1.11,2.27.93,4.7c2.09-2.95,5.16-4.8,8.12-4.8.76,0,1.55.28,1.55.28"/>
          <path class="cls-7" d="m644.87,176.25c-1.97-.65-3.42-2.21-3.93-4.24-2.79,2.78-5.04,3.89-8.34,3.89-7.14,0-9.29-4.34-9.29-8.23,0-6.55,5.62-10.38,15.31-10.38,1.22,0,2.03.06,2.03.06v-2.03c0-2.55-.11-3.59-.92-4.52-.93-1.04-2.09-1.56-3.89-1.56-3.23,0-7.36,1.74-9.21,3.4l-2.26-3.24c3.82-2.54,7.94-3.87,12.11-3.87s6.78,1.56,8,4.52c.63,1.56.7,3.77.63,6.38l-.23,9.51c-.11,4.7.17,5.92,2.32,7.07m-8.92-12.63c-7.31,0-9.92,2.49-9.92,6.9,0,3.42,1.67,5.27,4.99,5.27,2.96,0,5.68-1.8,7.01-4.53l.18-7.53c-.76-.07-1.45-.12-2.26-.12"/>
          <path class="cls-7" d="m700.76,175.14v-21.33c0-2.78-1.28-4.23-3.71-4.23-2.61,0-4.64,1.68-7.66,4.45v21.11h-4.59v-20.52c0-1.74-.17-2.9-.81-3.71-.69-.81-1.62-1.16-2.95-1.16-2.2,0-4.35,1.1-7.37,3.83v21.57h-4.34v-22.38c0-4.18-1.05-6.15-1.05-6.15l4.41-1.03s1.04,2.25,1.04,4.29c1.92-2.14,5.45-4.34,8.4-4.34s5.69,1.74,6.73,4.8c2.79-2.95,6.33-4.8,9.28-4.8,4.29,0,7.26,3.24,7.26,7.82v21.8"/>
          <path class="cls-7" d="m718.83,140.87c-1.97,0-3.54-1.55-3.54-3.48s1.56-3.59,3.54-3.59,3.54,1.57,3.54,3.53-1.56,3.53-3.54,3.53m-2.44,34.27v-28.75l4.7-.76v29.52h-4.7Z"/>
          <path class="cls-7" d="m740.4,176.01c-3.66,0-7.66-1.1-10.61-2.9l1.75-3.36c2.95,1.8,5.96,2.72,9.15,2.72,3.54,0,5.86-1.91,5.86-4.99,0-2.61-1.45-4.06-4.76-4.75l-3.59-.75c-4.76-.99-7.31-3.95-7.31-7.95,0-5.21,4.23-8.86,10.26-8.86,3.02,0,6.38.93,8.81,2.32l-1.67,3.36c-2.55-1.22-4.7-2.09-7.25-2.09-3.31,0-5.45,1.93-5.45,4.76,0,2.2,1.1,3.55,4.17,4.18l3.83.81c5.22,1.09,7.71,3.77,7.71,8.05,0,5.62-4.4,9.45-10.9,9.45"/>
          <path class="cls-7" d="m762.43,140.87c-1.97,0-3.55-1.55-3.55-3.48s1.57-3.59,3.55-3.59,3.53,1.57,3.53,3.53-1.56,3.53-3.53,3.53m-2.43,34.27v-28.75l4.7-.76v29.52h-4.7Z"/>
          <path class="cls-7" d="m786.43,175.88c-7.94,0-12.47-5.85-12.47-15.35s4.7-15.13,12.29-15.13c4.81,0,7.94,2.2,9.91,5.04,1.81,2.61,2.68,6.04,2.68,10.73,0,9.62-5.17,14.71-12.41,14.71m5.91-23.06c-1.21-2.56-3.76-3.72-6.14-3.72-2.55,0-4.93,1.22-5.92,3.14-.93,1.8-1.39,4.12-1.39,7.55,0,4.05.69,7.64,1.8,9.44,1.05,1.74,3.36,2.9,5.85,2.9,3.02,0,5.28-1.56,6.27-4.34.63-1.8.87-3.43.87-6.27,0-4.06-.4-6.79-1.34-8.69m-10.25-10.44l-1.53-2.74,12.01-7.53,2.49,4.46-12.97,5.8Z"/>
          <path class="cls-7" d="m824.16,175.14v-19.54c0-3.08-.25-3.83-1.04-4.81-.65-.75-1.87-1.21-3.19-1.21-2.31,0-5.92,1.86-8.01,4.05v21.51h-4.4v-22.26c0-4.12-1.1-6.09-1.1-6.09l4.4-1.21s1.05,2.15,1.05,4.52c3.03-3.02,6.04-4.47,9.11-4.47s5.92,1.69,7.07,4.24c.46,1.05.7,2.21.7,3.37v21.91"/>
        </g>
        <g>
          <g>
            <path class="cls-7" d="m90.44,75.81c-.01,9.89-8.04,17.9-17.93,17.9s-17.94-8.02-17.94-17.94c0-3.94,1.29-7.56,3.45-10.53l-7.31-10.04h-7.42v12.33h-7.85V31.67h19.66c6.49,0,11.76,5.25,11.76,11.76,0,4.76-2.86,8.88-6.97,10.71l4.21,5.81c2.51-1.34,5.38-2.09,8.42-2.09,5.53,0,10.45,2.49,13.73,6.38l-5.88,4.97c-1.89-2.24-4.71-3.68-7.85-3.68-5.65,0-10.25,4.61-10.25,10.24s4.6,10.26,10.25,10.26c4.01,0,7.5-2.34,9.16-5.69h-8.32v-6.84h17.08M60.03,13.21c-26.42,0-47.81,21.42-47.81,47.82s21.39,47.82,47.81,47.82,47.82-21.42,47.82-47.82S86.47,13.21,60.03,13.21"/>
            <path class="cls-7" d="m54.11,38.51h-10.81s0,9.83,0,9.83h10.81c2.72-.01,4.91-2.21,4.91-4.91s-2.19-4.92-4.91-4.92"/>
          </g>
          <path class="cls-7" d="m60.47,120.93C27.13,120.93,0,93.81,0,60.47S27.13,0,60.47,0s60.47,27.12,60.47,60.47-27.13,60.47-60.47,60.47Zm0-115.03C30.38,5.9,5.9,30.38,5.9,60.47s24.48,54.57,54.57,54.57,54.57-24.48,54.57-54.57S90.56,5.9,60.47,5.9Z"/>
        </g>
      </g>
    </g>
  </g>
</svg>